<?xml version="1.0" encoding="iso-8859-1"?>
<!-- Uploaded to: SVG Repo, www.svgrepo.com, Generator: SVG Repo Mixer Tools -->
<svg height="800px" width="800px" version="1.1" id="Layer_1" xmlns="http://www.w3.org/2000/svg" xmlns:xlink="http://www.w3.org/1999/xlink" 
	 viewBox="0 0 511.999 511.999" xml:space="preserve">
<path style="fill:#9BDC6E;" d="M438.792,29.069C418.819,9.095,384.948,0,361.931,0c-37.847,0-62.611,19.144-80.919,48.502
	c-0.044,0.085-0.196,0.287-0.21,0.317c-18.986,30.601-31.011,72.225-43.345,115.122c-17.716,61.612-36.025,125.319-75.975,165.267
	c-3.448,3.448-3.448,9.035,0,12.483c1.725,1.725,3.982,2.586,6.241,2.586s4.518-0.862,6.241-2.586
	c43.172-43.172,62.13-109.103,80.457-172.871c2.667-9.276,5.294-18.379,7.949-27.277c0.734,52.279,17.66,122.285,74.56,207.63
	c1.698,2.552,4.5,3.932,7.353,3.932c1.681,0,3.38-0.483,4.888-1.483c4.061-2.707,5.155-8.181,2.449-12.242
	C250.51,187.719,282.745,86.784,296.205,57.589c15.554-24.538,35.823-39.934,65.726-39.934c19.62,0,48.853,8.38,64.38,23.896
	c3.448,3.448,9.034,3.448,12.482,0S442.241,32.518,438.792,29.069z"/>
<path style="fill:#FF6464;" d="M381.533,507.037c-19.519,5.57-59.789,14.038-103.275-23.238
	c-50.428-43.225-50.14-112.055-15.544-141.754c23.272-19.979,51.637-13.065,72.526-19.027c20.888-5.962,42.208-27.055,71.741-22.146
	c43.903,7.297,76.463,66.752,53.084,131.041C439.904,487.353,401.052,501.466,381.533,507.037z"/>
<path style="fill:#D2555A;" d="M350.593,476.502c-46.63-45.888-53.972-113.161-31.753-150.85
	c-17.996,1.551-38.516,1.276-56.125,16.393c-34.595,29.7-34.883,98.529,15.544,141.754c43.486,37.275,83.757,28.808,103.275,23.238
	c2.614-0.746,5.593-1.664,8.809-2.795C377.863,498.855,364.473,490.163,350.593,476.502z"/>
<path style="fill:#FF6464;" d="M130.466,507.037c19.519,5.57,59.789,14.038,103.275-23.238
	c50.428-43.225,50.14-112.055,15.544-141.754c-23.272-19.979-51.637-13.065-72.526-19.027
	c-20.888-5.962-42.208-27.055-71.741-22.146c-43.903,7.297-76.463,66.752-53.084,131.041
	C72.096,487.353,110.947,501.466,130.466,507.037z"/>
<path style="fill:#D2555A;" d="M114.624,460.456c-18.174-64.401,8.377-126.134,45.598-144.447
	c-16.009-8.175-33.356-18.767-55.203-15.137c-43.903,7.297-76.463,66.752-53.084,131.041c20.161,55.439,59.012,69.554,78.531,75.124
	c2.404,0.686,5.13,1.416,8.132,2.099C129.26,497.592,120.698,481.983,114.624,460.456z"/>
</svg>