<?xml version="1.0" encoding="iso-8859-1"?>
<!-- Uploaded to: SVG Repo, www.svgrepo.com, Generator: SVG Repo Mixer Tools -->
<!DOCTYPE svg PUBLIC "-//W3C//DTD SVG 1.1//EN" "http://www.w3.org/Graphics/SVG/1.1/DTD/svg11.dtd">
<svg fill="#fff" version="1.1" id="Capa_1" xmlns="http://www.w3.org/2000/svg" xmlns:xlink="http://www.w3.org/1999/xlink" 
	 viewBox="0 0 392.082 392.082" xml:space="preserve">
<g>
	<path d="M212.593,300h40.847v-39.333h-40.847V300z M220.593,268.667h24.847V292h-24.847V268.667z"/>
	<rect x="224.704" y="276.333" width="16.625" height="8"/>
	<rect x="100.947" y="230" width="16.625" height="8"/>
	<rect x="133.914" y="230" width="16.625" height="8"/>
	<rect x="166.881" y="230" width="16.625" height="8"/>
	<rect x="199.848" y="230" width="16.625" height="8"/>
	<rect x="232.814" y="230" width="16.625" height="8"/>
	<path d="M253.44,113.083H96.947v93.008H253.44V113.083z M245.44,198.091H104.947v-77.008H245.44V198.091z"/>
	<path d="M148.394,130.689h-37.368v57.797h37.368V130.689z M140.394,138.689v4.23h-21.368v-4.23H140.394z M140.394,150.919v17.336
		h-21.368v-17.336H140.394z M119.027,180.486v-4.23h21.368v4.23H119.027z"/>
	<path d="M193.877,130.689H156.51v57.797h37.368V130.689z M185.877,138.689v4.23H164.51v-4.23H185.877z M185.877,150.919v17.336
		H164.51v-17.336H185.877z M164.51,180.486v-4.23h21.368v4.23H164.51z"/>
	<path d="M239.36,130.689h-37.368v57.797h37.368V130.689z M231.36,138.689v4.23h-21.368v-4.23H231.36z M231.36,150.919v17.336
		h-21.368v-17.336H231.36z M209.993,180.486v-4.23h21.368v4.23H209.993z"/>
	<path d="M109.14,106.106h132.107c1.961,0,3.797-0.964,4.91-2.58c1.116-1.62,1.364-3.685,0.663-5.525
		c-11.248-29.51-40.032-49.338-71.627-49.338c-31.593,0-60.378,19.828-71.626,49.338c-0.701,1.839-0.453,3.904,0.663,5.524
		C105.343,105.142,107.178,106.106,109.14,106.106z M175.193,56.664c27.306,0,52.269,16.536,63.036,41.443H112.158
		C122.925,73.2,147.888,56.664,175.193,56.664z"/>
	<path d="M96.947,260.667V300h108.369v-39.333H96.947z M171.77,268.667c-4.403,6.958-12.128,11.347-20.639,11.347
		c-8.511,0-16.236-4.389-20.639-11.347H171.77z M197.316,292h-92.369v-23.333h16.52c5.138,11.679,16.71,19.347,29.665,19.347
		c12.954,0,24.527-7.667,29.664-19.347h16.52V292z"/>
	<path d="M302.751,125.465c-1.438-0.509-2.936-0.768-4.451-0.768c-5.636,0-10.687,3.57-12.569,8.884
		c-1.989,5.616,0.026,11.695,4.551,15.104l-14.398,40.647h-5.945v-64.489c0-45.779-32.638-84.077-75.866-92.854V18.88
		c0-10.411-8.47-18.88-18.88-18.88c-10.41,0-18.88,8.469-18.88,18.88v13.112c-43.228,8.776-75.865,47.074-75.865,92.853v254.259
		c0,7.156,5.822,12.979,12.979,12.979H256.96c7.156,0,12.979-5.822,12.979-12.979v-133.77h15.803
		c6.862,0,12.444-5.583,12.444-12.444v-31.112c0-6.861-5.583-12.444-12.444-12.444h-1.371l13.455-37.984
		c0.158,0.006,0.315,0.02,0.473,0.02c0,0,0,0,0,0c5.634,0,10.686-3.57,12.568-8.884C313.323,135.556,309.682,127.92,302.751,125.465
		z M261.939,243.333H88.448v-18h173.491V243.333z M164.313,18.88c0-5.999,4.881-10.88,10.88-10.88c6,0,10.88,4.881,10.88,10.88
		v11.848c-3.571-0.41-7.2-0.628-10.88-0.628c-3.68,0-7.309,0.218-10.88,0.628V18.88z M175.194,38.1
		c47.832,0,86.745,38.914,86.745,86.745v64.489v28H88.448v-92.489C88.448,77.013,127.362,38.1,175.194,38.1z M256.96,384.082H93.427
		c-2.745,0-4.979-2.233-4.979-4.979v-127.77h173.491v127.77C261.939,381.849,259.706,384.082,256.96,384.082z M285.742,237.333
		h-15.803V212h20.248v20.889C290.186,235.34,288.193,237.333,285.742,237.333z M290.186,201.777V204h-20.248v-6.667h15.803
		C288.193,197.333,290.186,199.327,290.186,201.777z M303.327,139.814c-0.753,2.126-2.773,3.555-5.027,3.555
		c-0.604,0-1.203-0.104-1.781-0.309c-2.772-0.982-4.228-4.036-3.246-6.808c0.753-2.126,2.773-3.555,5.028-3.555
		c0.603,0,1.202,0.104,1.78,0.309C302.852,133.988,304.309,137.042,303.327,139.814z"/>
</g>
</svg>